HIERARCHY
ROOT Hips
{
  OFFSET 2.26061 22.2878 23.7974
  CHANNELS 6 Xposition Yposition Zposition Zrotation Xrotation Yrotation
  JOINT LeftUpLeg
  {
    OFFSET 8.64259 1.95398 -2.38835
    CHANNELS 3 Zrotation Xrotation Yrotation
    JOINT LeftLeg
    {
      OFFSET 43.7702 0 0
      CHANNELS 3 Zrotation Xrotation Yrotation
      JOINT LeftFoot
      {
        OFFSET 40.6238 0 0
        CHANNELS 3 Zrotation Xrotation Yrotation
        JOINT LeftToeBase
        {
          OFFSET 12.7242 0 0
          CHANNELS 3 Zrotation Xrotation Yrotation
          End Site
          {
            OFFSET 0 0 0
          }
        }
      }
    }
  }
  JOINT RightUpLeg
  {
    OFFSET -8.2249 1.95398 -2.59336
    CHANNELS 3 Zrotation Xrotation Yrotation
    JOINT RightLeg
    {
      OFFSET 43.5653 0 0
      CHANNELS 3 Zrotation Xrotation Yrotation
      JOINT RightFoot
      {
        OFFSET 40.6238 0 0
        CHANNELS 3 Zrotation Xrotation Yrotation
        JOINT RightToeBase
        {
          OFFSET 12.7242 0 0
          CHANNELS 3 Zrotation Xrotation Yrotation
          End Site
          {
            OFFSET 0 0 0
          }
        }
      }
    }
  }
  JOINT Spine
  {
    OFFSET 0.165834 0.87714 6.61349
    CHANNELS 3 Zrotation Xrotation Yrotation
    JOINT Spine1
    {
      OFFSET 7.38963 1.71661e-005 0
      CHANNELS 3 Zrotation Xrotation Yrotation
      JOINT Spine2
      {
        OFFSET 11.9445 1.14441e-005 0
        CHANNELS 3 Zrotation Xrotation Yrotation
        JOINT Spine3
        {
          OFFSET 14.7254 4.19617e-005 0
          CHANNELS 3 Zrotation Xrotation Yrotation
          JOINT Spine4
          {
            OFFSET 10.9679 0 0
            CHANNELS 3 Zrotation Xrotation Yrotation
            JOINT RightShoulder
            {
              OFFSET 2.46616 -1.6653 3.69651
              CHANNELS 3 Zrotation Xrotation Yrotation
              JOINT RightArm
              {
                OFFSET 13.0012 0 0
                CHANNELS 3 Zrotation Xrotation Yrotation
                JOINT RightForeArm
                {
                  OFFSET 28.7848 1.52588e-005 0
                  CHANNELS 3 Zrotation Xrotation Yrotation
                  JOINT RightHand
                  {
                    OFFSET 26.5688 1.52588e-005 0
                    CHANNELS 3 Zrotation Xrotation Yrotation
                    End Site
                    {
                      OFFSET 0 0 0
                    }
                  }
                }
              }
            }
            JOINT LeftShoulder
            {
              OFFSET 2.38034 -1.29275 -3.7523
              CHANNELS 3 Zrotation Xrotation Yrotation
              JOINT LeftArm
              {
                OFFSET 16.3182 6.10351e-005 0
                CHANNELS 3 Zrotation Xrotation Yrotation
                JOINT LeftForeArm
                {
                  OFFSET 27.0901 0 0
                  CHANNELS 3 Zrotation Xrotation Yrotation
                  JOINT LeftHand
                  {
                    OFFSET 24.5451 1.52588e-005 0
                    CHANNELS 3 Zrotation Xrotation Yrotation
                    End Site
                    {
                      OFFSET 0 0 0
                    }
                  }
                }
              }
            }
            JOINT Neck
            {
              OFFSET 5.0226 -0.0266342 0
              CHANNELS 3 Zrotation Xrotation Yrotation
              JOINT Head
              {
                OFFSET 6.69363 2.86102e-005 0
                CHANNELS 3 Zrotation Xrotation Yrotation
                End Site
                {
                  OFFSET 0 0 0
                }
              }
            }
          }
        }
      }
    }
  }
}
MOTION
Frames:	17
Frame Time:	0.0416667
35.9899 92.0897 -129.244 82.2597 -82.1557 84.523 -172.238 -4.64499 95.9741 -40.4968 23.6395 4.06619 47.2271 -7.50534 -6.40695 50.8718 19.8786 11.8468 176.047 30.0733 94.2952 -25.9886 3.01467 0.29803 59.4355 -0.721626 -0.32096 39.5 0.375933 -5.10432 -1.31967 7.52982 -90.4851 11.811 -2.85253 -0.66396 0.143133 -2.87898 -0.537675 -22.4116 -2.52103 -1.49102 -2.39895 -2.52103 -1.49102 93.6467 -56.0191 -94.2768 21.7683 -3.42321 16.471 -7.63405 -26.3491 -38.0892 -1.41954 -0.633441 7.16593 -101.621 -51.351 62.19 -15.0407 9.9362 -0.823677 8.88672 8.59614 -48.1498 18.5048 1.64566 5.03193 2.94331 1.29112 1.33251 3.65811 1.19822 1.63125 
35.3176 92.1993 -120.421 93.6783 -83.9002 95.7913 -174.084 2.33884 95.9031 -54.9445 19.0811 3.71031 35.7721 -13.7806 -9.19946 36.0445 5.74706 15.2597 175.933 27.7896 95.8395 -35.5026 1.77372 0.173793 65.8512 -2.32997 -1.25309 32.4619 0.265179 -2.5167 -1.10264 7.60571 -90.425 11.6578 -2.39246 -0.597699 -0.0110806 -2.41645 -0.491775 -22.5595 -2.10219 -1.28937 -2.54687 -2.10219 -1.28937 93.6157 -54.486 -94.5501 24.891 -2.42831 14.2133 -9.87436 -25.4629 -39.523 -0.764087 -0.595677 7.921 -102.838 -51.8079 60.6507 -16.4901 10.4679 0.526255 5.28589 8.21424 -40.8854 18.0302 1.60757 5.04579 3.16859 0.869674 1.73345 3.04031 0.659333 0.720199 
34.9104 93.9953 -111.725 101.886 -86.7741 103.558 -173.891 11.2518 94.1639 -62.2118 16.4207 2.26477 42.9427 -9.42072 -4.0573 38.3064 7.96136 13.0246 176.794 20.5876 96.5864 -33.4006 0.342399 -0.766727 69.2401 -3.54678 -1.85609 28.4334 0.089813 -1.55637 -0.657784 7.56213 -90.2715 11.75 -1.43577 -0.390582 0.0798038 -1.45157 -0.327001 -22.4601 -1.252 -0.804087 -2.44748 -1.252 -0.80409 92.5513 -53.4089 -96.2912 25.9622 -5.6313 12.0035 -6.6633 -23.3216 -41.8291 -5.49878 -0.859705 6.03946 -102.97 -52.8883 60.8888 -17.1188 12.3558 1.21965 3.96399 10.1416 -35.6738 14.7372 1.32356 5.00007 1.69339 0.221438 2.18309 3.42077 -0.0663638 -0.11383 
34.2511 95.6734 -103.124 -105.903 -89.341 -106.377 -172.378 17.6071 91.2267 -56.6334 13.956 0.218114 49.1967 -5.35641 -1.94835 41.3662 10.8463 11.8232 177.872 13.686 95.8501 -29.8228 -2.01032 -2.85409 70.7125 -4.17598 -2.1364 29.468 0.0908909 -0.953649 -0.208788 7.49877 -89.9169 11.8761 -0.375938 0.20651 0.205185 -0.366494 0.222849 -22.3303 -0.420629 0.0839729 -2.31763 -0.420624 0.0839723 92.2949 -52.5109 -96.8317 26.505 -7.82058 9.78957 -10.6486 -22.3606 -50.7298 -6.61318 -0.831305 4.31916 -102.253 -52.9226 61.9003 -20.4385 10.9115 4.08217 5.36859 12.1267 -33.5345 12.4323 0.961965 3.70554 0.278832 0.121173 3.03196 4.0704 -0.300345 -0.993185 
34.0901 96.6658 -94.8888 -84.1501 -86.3845 -85.0727 -172.309 20.7239 89.8406 -41.3999 10.4877 -0.740496 55.9965 -0.578459 0.75701 42.5184 12.2864 14.8473 176.781 6.68223 94.7117 -25.355 -5.86279 -2.64089 70.6327 -4.29097 -2.17619 31.3787 0.24775 -2.8981 0.146103 7.4504 -89.8144 11.9723 0.378081 0.329233 0.301382 0.392199 0.31227 -22.2337 0.261646 0.427639 -2.22103 0.261653 0.427643 92.0183 -50.5037 -97.6273 26.7975 -9.09618 7.93982 -14.5758 -20.1438 -59.4955 -6.80985 -0.783627 3.36951 -101.701 -53.1595 62.7581 -23.0235 11.2489 8.24348 3.86109 9.38441 -33.6896 12.4775 0.967921 3.73155 -0.745876 0.358086 4.21616 4.68574 -0.221034 -1.66587 
34.178 96.3622 -86.6091 -68.018 -83.9929 -68.6385 -173.735 22.8474 89.7171 -21.5584 9.69853 -0.455447 59.2197 1.92852 1.10728 43.9189 13.9732 16.8323 175.452 1.46818 93.9034 -21.9039 -7.32114 -1.95463 72.5119 -5.07968 -2.49253 32.4698 0.269465 -2.64344 0.373021 7.33022 -89.8308 12.2128 0.82153 0.245964 0.542039 0.83156 0.209565 -21.9946 0.709625 0.481511 -1.98193 0.709629 0.481514 92.0309 -49.3626 -97.8301 24.8763 -10.2132 3.5846 -16.0388 -17.9747 -64.9673 -8.4966 -0.731978 1.81769 -101.088 -53.5628 63.7592 -24.8029 11.8476 10.9277 5.05593 11.2462 -34.5956 11.9226 1.01429 4.42344 0.0873393 0.317859 6.22678 3.77942 -0.625115 -3.38946 
34.2042 95.1172 -78.2508 -64.8003 -81.393 -65.773 -175.058 25.5773 90.1239 -6.67768 12.4026 -0.113561 59.0384 1.42125 0.912209 44.1021 13.9792 15.5828 174.903 -2.42906 92.6867 -21.8837 -9.5129 -2.868 73.4667 -5.76742 -2.76879 37.5589 0.383805 -4.5016 0.617138 7.26165 -89.7794 12.3494 1.33115 0.28957 0.679149 1.34261 0.230688 -21.8603 1.18257 0.676298 -1.84761 1.18257 0.676297 91.9441 -49.4859 -97.9403 21.1636 -10.5688 -0.41679 -19.1761 -16.3458 -70.7789 -9.79516 -0.82063 2.19653 -100.558 -54.2231 64.7279 -25.982 11.8392 13.1218 4.92995 10.7699 -35.202 13.6183 1.21654 4.93524 1.23409 0.760339 6.70801 1.86621 -0.232745 -3.00665 
34.5279 93.5328 -69.7898 -69.0628 -78.4315 -70.1396 -175.306 29.7758 90.8115 -6.22146 15.3134 -0.16292 60.757 2.15692 2.05602 45.3615 15.1286 14.8113 174.903 -4.57483 90.9161 -26.9935 -14.345 -5.45628 72.3087 -5.69907 -2.81733 44.449 0.413595 -4.95738 0.922675 7.28155 -89.7231 12.3092 1.96506 0.330894 0.639657 1.97772 0.244045 -21.9052 1.77474 0.906348 -1.89259 1.77475 0.906349 91.7167 -48.0578 -98.5887 21.4517 -8.89664 -3.11242 -23.2415 -16.8231 -71.876 -11.1207 -0.669787 0.11444 -99.0421 -54.8668 67.0462 -26.7426 9.6208 15.1066 5.53315 8.98561 -37.25 16.2437 1.36633 4.51281 2.49385 1.24294 7.04931 -0.233349 0.184163 -3.01852 
34.9568 92.5175 -59.7076 -72.9244 -77.924 -75.1598 -174.716 30.9101 88.9582 -16.0133 14.1277 -0.848762 59.0551 1.45697 0.797146 42.8911 12.5348 13.9425 175.088 -4.7009 87.9352 -37.3285 -16.5768 -8.47192 62.8758 -1.84276 -1.03609 53.0219 1.09742 -1.02982 1.05358 7.31879 -89.5139 12.2313 2.32437 0.710689 0.562271 2.3534 0.607647 -21.9845 2.0033 1.37662 -1.97189 2.0033 1.37661 91.6366 -48.0778 -98.7086 22.1175 -7.3774 -1.28934 -24.5426 -17.1179 -71.4793 -12.9478 -0.990163 2.45482 -97.8607 -53.8874 68.3789 -27.2647 8.20585 16.8471 7.22004 8.16773 -42.2572 18.9301 1.8674 5.97985 1.83122 0.977393 5.15258 -1.55562 0.255442 -2.14862 
35.2088 91.4989 -49.0565 -73.5217 -78.037 -76.0771 -173.525 33.5614 87.5223 -32.5938 15.3308 -1.64752 60.0696 1.84727 3.61084 40.3536 9.19978 1.99222 178.545 3.04969 88.2573 -53.699 -11.7466 -7.92181 40.1003 5.05893 5.03957 38.1978 0.476598 0.332614 1.0496 7.21653 -89.4118 12.4326 2.3652 0.903781 0.763597 2.40269 0.798752 -21.782 1.98423 1.57301 -1.76939 1.98423 1.573 92.2241 -49.4155 -97.5203 21.4492 -7.59209 1.69659 -21.5121 -18.587 -67.0895 -14.4882 -1.18979 3.51218 -97.3552 -52.5011 68.657 -25.0668 6.49219 16.9202 7.76263 5.95643 -47.709 21.0519 2.04871 5.92218 0.224384 0.994023 3.0493 -3.29704 0.628342 -1.19357 
34.919 90.1583 -39.2927 -86.2441 -81.9583 -89.8346 -173.964 30.5314 84.1599 -44.3652 15.7085 -1.14039 65.691 7.24171 8.13236 34.1017 4.27954 -4.03864 179.081 16.2584 89.077 -73.7673 1.10116 -4.311 38.2995 3.2977 3.60639 32.1044 0.397919 -7.51149 0.517956 7.50924 -89.1733 11.8451 1.41906 1.49924 0.174204 1.48367 1.43533 -22.3571 0.902949 1.85632 -2.34446 0.902946 1.85631 93.0623 -51.1305 -95.919 21.0895 -6.78468 3.89202 -15.4066 -18.548 -61.0177 -26.1823 -1.6602 2.78634 -97.1219 -49.0139 67.8702 -17.478 2.71593 13.3398 8.2092 3.49121 -55.2639 24.8575 2.17894 4.97564 -2.52655 1.29552 -0.0266353 -1.98146 1.30858 0.964999 
34.6366 90.5741 -31.0859 -92.5043 -85.5365 -97.2438 -175.254 24.4204 82.1772 -44.8136 16.1622 -0.382865 67.7852 10.7459 10.3368 37.4755 6.74641 -3.95361 177.304 35.7486 89.0724 -84.6259 6.30503 -2.24409 47.2179 0.0316937 0.313655 36.9933 0.346805 -8.75776 -0.0954116 7.66733 -88.9919 11.5304 0.281975 1.98235 -0.142013 0.368934 1.96802 -22.6652 -0.326696 1.97547 -2.65258 -0.326705 1.97546 93.808 -50.9914 -94.8015 20.1738 -1.9301 9.65761 -9.89603 -10.1583 -64.2788 -38.7899 -2.08544 1.61045 -95.0443 -43.9379 69.3351 -4.1705 -5.82085 3.76219 10.3997 2.6277 -63.1127 24.5513 2.28942 5.54729 -3.72179 1.87631 -1.55578 -2.42602 2.02358 2.52413 
35.2148 94.1014 -23.1969 -125.87 -88.0135 -126.603 -176.062 13.2778 84.5497 -35.95 20.9493 1.29617 65.3894 9.56672 10.1271 39.0991 8.01249 -1.93146 173.271 53.6476 94.8879 -88.011 7.32742 -1.14862 50.3141 -0.426621 -0.0536971 34.5982 0.401165 -8.3552 -0.846232 7.77262 -89.5711 11.3344 -1.48386 1.00303 -0.336313 -1.43828 1.06736 -22.8763 -1.71673 0.510627 -2.86366 -1.71673 0.510626 93.3091 -46.3212 -96.3985 14.6529 1.79747 17.1907 -12.4402 -6.40365 -73.4535 -42.2129 -1.23456 -1.16407 -91.7145 -34.9668 71.8488 4.01177 -20.5212 1.55523 9.75259 1.38604 -71.7657 25.9086 2.25696 4.92962 -5.85146 3.71132 -0.616831 -3.57517 3.75521 4.82659 
36.5087 101.307 -13.235 -143.935 -85.7117 -138.808 -174.601 0.912744 92.1092 -21.2923 21.2901 2.42777 48.8917 -4.27409 -2.76814 38.3929 7.6866 3.90002 166.377 60.3297 103.305 -83.9999 3.97513 0.113368 52.0648 0.172718 0.362432 30.6692 0.400364 -6.39364 -0.938705 8.05711 -90.5927 10.7506 -2.14251 -0.980839 -0.918911 -2.1836 -0.885578 -23.4613 -1.74869 -1.57949 -3.44865 -1.74869 -1.5795 93.5248 -41.6331 -96.9445 4.95205 4.43682 22.7449 -14.7345 -5.23616 -76.7492 -39.9712 -1.52332 -0.124763 -89.8087 -30.9815 74.0049 12.6298 -27.6317 5.00588 5.1385 0.569149 -75.3207 26.2162 1.31312 1.13504 -13.434 4.46501 3.4762 -0.169389 4.72305 6.41702 
35.6308 108.139 -3.53643 -179.503 -87.3521 -176.894 -173.352 7.7552 91.4512 -35.8718 18.0836 0.700027 38.993 -10.4206 -6.26664 28.1047 -1.77369 10.5224 166.412 59.1492 98.8405 -71.147 0.625197 1.75177 48.7527 2.30769 2.12616 30.3349 0.461889 -7.46288 -1.24153 8.18718 -90.4597 10.4947 -2.68382 -0.671991 -1.17363 -2.7108 -0.55315 -23.7256 -2.35776 -1.4479 -3.71294 -2.35775 -1.4479 93.9473 -41.2467 -96.297 -2.07264 8.35405 25.1741 -11.447 -4.03039 -75.9265 -39.0437 -1.15828 -1.29564 -88.0177 -28.7567 76.7229 17.5631 -31.9887 8.36501 4.49116 1.003 -80.0993 24.6567 0.840451 -0.487811 -19.6047 4.03529 3.98137 2.72767 4.74731 7.26467 
34.5361 111.932 6.8703 -154.222 -84.6085 -154.794 -170.44 22.6898 87.9254 -72.6902 15.6338 -0.499154 45.5071 -6.51337 -1.889 33.4923 3.38431 8.91027 174.266 45.6812 93.1104 -50.0511 -4.2201 0.41688 46.4849 3.51145 3.22165 29.125 0.610819 -9.7024 -0.789653 8.47098 -90.0675 9.93323 -1.60446 -0.00394585 -1.73677 -1.60307 0.0666808 -24.2791 -1.52909 -0.486086 -4.26643 -1.52908 -0.486081 94.3091 -38.7537 -96.1506 -4.25826 12.9679 30.0612 -12.3518 -2.97474 -75.4411 -35.8441 -1.32058 -0.590828 -87.1171 -26.4071 77.8258 19.9379 -30.6609 11.3185 5.0073 1.07309 -81.8176 21.7462 0.657547 -0.892023 -26.0776 3.47859 2.92783 5.59041 4.47078 7.00113 
33.0126 112.816 17.8228 -150.15 -81.2579 -152.114 -167.741 33.3476 87.6194 -93.8289 19.902 -0.0294194 48.6525 -4.37286 0.09644 38.5991 8.08188 9.22646 177.417 28.049 92.3854 -26.3647 -8.26206 -1.85289 41.8554 4.58865 4.48645 27.367 0.649479 -9.338 -0.563534 8.54818 -89.7531 9.78005 -1.01144 0.57068 -1.89063 -0.985344 0.614631 -24.4288 -1.13619 0.24028 -4.41612 -1.13618 0.240278 95.2516 -36.5801 -94.8605 -6.08014 14.7017 31.9634 -10.2887 -2.24048 -76.3326 -31.6955 -0.975064 -1.39106 -85.2572 -24.3834 81.1005 21.7721 -26.9651 15.7425 4.72479 0.717313 -83.5766 19.3441 0.403502 -1.78862 -29.4876 3.6078 1.02128 5.18123 4.4999 7.93354 
